<mxfile host="app.diagrams.net" agent="Mozilla/5.0 (X11; Ubuntu; Linux x86_64; rv:131.0) Gecko/20100101 Firefox/131.0" version="24.7.16">
  <diagram name="Page-1" id="DmSp7L_LC9lSs94IhfIj">
    <mxGraphModel dx="2769" dy="1388" grid="0" gridSize="10" guides="1" tooltips="1" connect="1" arrows="1" fold="1" page="0" pageScale="1" pageWidth="850" pageHeight="1100" math="0" shadow="0">
      <root>
        <mxCell id="0" />
        <mxCell id="1" parent="0" />
        <mxCell id="Q3TewVwlvLbOsvYqBu9Q-1" value="User" style="whiteSpace=wrap;html=1;align=center;" vertex="1" parent="1">
          <mxGeometry x="172" y="20" width="100" height="40" as="geometry" />
        </mxCell>
        <mxCell id="Q3TewVwlvLbOsvYqBu9Q-2" value="Chat" style="whiteSpace=wrap;html=1;align=center;" vertex="1" parent="1">
          <mxGeometry x="-364" y="431" width="100" height="40" as="geometry" />
        </mxCell>
        <mxCell id="Q3TewVwlvLbOsvYqBu9Q-3" value="Message" style="whiteSpace=wrap;html=1;align=center;" vertex="1" parent="1">
          <mxGeometry x="-370" y="-61" width="100" height="40" as="geometry" />
        </mxCell>
        <mxCell id="Q3TewVwlvLbOsvYqBu9Q-4" value="Post" style="whiteSpace=wrap;html=1;align=center;" vertex="1" parent="1">
          <mxGeometry x="859" y="170" width="100" height="40" as="geometry" />
        </mxCell>
        <mxCell id="Q3TewVwlvLbOsvYqBu9Q-13" style="edgeStyle=none;curved=1;rounded=0;orthogonalLoop=1;jettySize=auto;html=1;exitX=0.5;exitY=1;exitDx=0;exitDy=0;fontSize=12;startSize=8;endSize=8;" edge="1" parent="1" source="Q3TewVwlvLbOsvYqBu9Q-6" target="Q3TewVwlvLbOsvYqBu9Q-1">
          <mxGeometry relative="1" as="geometry" />
        </mxCell>
        <mxCell id="Q3TewVwlvLbOsvYqBu9Q-6" value="&lt;div&gt;hashpassword&lt;/div&gt;" style="ellipse;whiteSpace=wrap;html=1;align=center;" vertex="1" parent="1">
          <mxGeometry x="100" y="-88" width="100" height="40" as="geometry" />
        </mxCell>
        <mxCell id="Q3TewVwlvLbOsvYqBu9Q-7" value="&lt;div&gt;name&lt;/div&gt;" style="ellipse;whiteSpace=wrap;html=1;align=center;" vertex="1" parent="1">
          <mxGeometry x="332" y="-32" width="100" height="40" as="geometry" />
        </mxCell>
        <mxCell id="Q3TewVwlvLbOsvYqBu9Q-17" style="edgeStyle=none;curved=1;rounded=0;orthogonalLoop=1;jettySize=auto;html=1;exitX=0;exitY=0.5;exitDx=0;exitDy=0;fontSize=12;startSize=8;endSize=8;" edge="1" parent="1" source="Q3TewVwlvLbOsvYqBu9Q-8">
          <mxGeometry relative="1" as="geometry">
            <mxPoint x="273" y="35" as="targetPoint" />
          </mxGeometry>
        </mxCell>
        <mxCell id="Q3TewVwlvLbOsvYqBu9Q-8" value="bio" style="ellipse;whiteSpace=wrap;html=1;align=center;" vertex="1" parent="1">
          <mxGeometry x="295" y="15" width="100" height="40" as="geometry" />
        </mxCell>
        <mxCell id="Q3TewVwlvLbOsvYqBu9Q-14" style="edgeStyle=none;curved=1;rounded=0;orthogonalLoop=1;jettySize=auto;html=1;exitX=0.5;exitY=1;exitDx=0;exitDy=0;entryX=0.25;entryY=0;entryDx=0;entryDy=0;fontSize=12;startSize=8;endSize=8;" edge="1" parent="1" source="Q3TewVwlvLbOsvYqBu9Q-9" target="Q3TewVwlvLbOsvYqBu9Q-1">
          <mxGeometry relative="1" as="geometry" />
        </mxCell>
        <mxCell id="Q3TewVwlvLbOsvYqBu9Q-9" value="username" style="ellipse;whiteSpace=wrap;html=1;align=center;" vertex="1" parent="1">
          <mxGeometry x="23" y="-132" width="100" height="40" as="geometry" />
        </mxCell>
        <mxCell id="Q3TewVwlvLbOsvYqBu9Q-78" style="edgeStyle=none;curved=1;rounded=0;orthogonalLoop=1;jettySize=auto;html=1;fontSize=12;startSize=8;endSize=8;" edge="1" parent="1" source="Q3TewVwlvLbOsvYqBu9Q-10" target="Q3TewVwlvLbOsvYqBu9Q-1">
          <mxGeometry relative="1" as="geometry" />
        </mxCell>
        <mxCell id="Q3TewVwlvLbOsvYqBu9Q-10" value="&lt;div&gt;email&lt;/div&gt;" style="ellipse;whiteSpace=wrap;html=1;align=center;" vertex="1" parent="1">
          <mxGeometry x="197" y="-119" width="100" height="40" as="geometry" />
        </mxCell>
        <mxCell id="Q3TewVwlvLbOsvYqBu9Q-18" style="edgeStyle=none;curved=1;rounded=0;orthogonalLoop=1;jettySize=auto;html=1;exitX=0.5;exitY=1;exitDx=0;exitDy=0;entryX=0.5;entryY=0;entryDx=0;entryDy=0;fontSize=12;startSize=8;endSize=8;" edge="1" parent="1" source="Q3TewVwlvLbOsvYqBu9Q-11" target="Q3TewVwlvLbOsvYqBu9Q-1">
          <mxGeometry relative="1" as="geometry" />
        </mxCell>
        <mxCell id="Q3TewVwlvLbOsvYqBu9Q-11" value="id" style="ellipse;whiteSpace=wrap;html=1;align=center;fontStyle=4;" vertex="1" parent="1">
          <mxGeometry x="175" y="-52" width="100" height="28" as="geometry" />
        </mxCell>
        <mxCell id="Q3TewVwlvLbOsvYqBu9Q-16" style="edgeStyle=none;curved=1;rounded=0;orthogonalLoop=1;jettySize=auto;html=1;exitX=0.5;exitY=1;exitDx=0;exitDy=0;entryX=0.67;entryY=0.075;entryDx=0;entryDy=0;entryPerimeter=0;fontSize=12;startSize=8;endSize=8;" edge="1" parent="1" source="Q3TewVwlvLbOsvYqBu9Q-7" target="Q3TewVwlvLbOsvYqBu9Q-1">
          <mxGeometry relative="1" as="geometry" />
        </mxCell>
        <mxCell id="Q3TewVwlvLbOsvYqBu9Q-20" value="imageUrl" style="ellipse;whiteSpace=wrap;html=1;align=center;" vertex="1" parent="1">
          <mxGeometry x="-407" y="-123" width="100" height="40" as="geometry" />
        </mxCell>
        <mxCell id="Q3TewVwlvLbOsvYqBu9Q-24" style="edgeStyle=none;curved=1;rounded=0;orthogonalLoop=1;jettySize=auto;html=1;exitX=0;exitY=0.5;exitDx=0;exitDy=0;entryX=0.5;entryY=0;entryDx=0;entryDy=0;fontSize=12;startSize=8;endSize=8;" edge="1" parent="1" source="Q3TewVwlvLbOsvYqBu9Q-21" target="Q3TewVwlvLbOsvYqBu9Q-3">
          <mxGeometry relative="1" as="geometry" />
        </mxCell>
        <mxCell id="Q3TewVwlvLbOsvYqBu9Q-21" value="description" style="ellipse;whiteSpace=wrap;html=1;align=center;" vertex="1" parent="1">
          <mxGeometry x="-262" y="-137" width="100" height="40" as="geometry" />
        </mxCell>
        <mxCell id="Q3TewVwlvLbOsvYqBu9Q-25" style="edgeStyle=none;curved=1;rounded=0;orthogonalLoop=1;jettySize=auto;html=1;exitX=0.5;exitY=1;exitDx=0;exitDy=0;entryX=0;entryY=0.75;entryDx=0;entryDy=0;fontSize=12;startSize=8;endSize=8;" edge="1" parent="1" source="Q3TewVwlvLbOsvYqBu9Q-22" target="Q3TewVwlvLbOsvYqBu9Q-3">
          <mxGeometry relative="1" as="geometry" />
        </mxCell>
        <mxCell id="Q3TewVwlvLbOsvYqBu9Q-22" value="id" style="ellipse;whiteSpace=wrap;html=1;align=center;fontStyle=4;" vertex="1" parent="1">
          <mxGeometry x="-482" y="-76" width="100" height="28" as="geometry" />
        </mxCell>
        <mxCell id="Q3TewVwlvLbOsvYqBu9Q-23" style="edgeStyle=none;curved=1;rounded=0;orthogonalLoop=1;jettySize=auto;html=1;exitX=0.5;exitY=1;exitDx=0;exitDy=0;entryX=0.35;entryY=0.1;entryDx=0;entryDy=0;entryPerimeter=0;fontSize=12;startSize=8;endSize=8;" edge="1" parent="1" source="Q3TewVwlvLbOsvYqBu9Q-20" target="Q3TewVwlvLbOsvYqBu9Q-3">
          <mxGeometry relative="1" as="geometry" />
        </mxCell>
        <mxCell id="Q3TewVwlvLbOsvYqBu9Q-29" style="edgeStyle=none;curved=1;rounded=0;orthogonalLoop=1;jettySize=auto;html=1;exitX=0.5;exitY=1;exitDx=0;exitDy=0;entryX=0.5;entryY=0;entryDx=0;entryDy=0;fontSize=12;startSize=8;endSize=8;" edge="1" parent="1" source="Q3TewVwlvLbOsvYqBu9Q-28" target="Q3TewVwlvLbOsvYqBu9Q-2">
          <mxGeometry relative="1" as="geometry" />
        </mxCell>
        <mxCell id="Q3TewVwlvLbOsvYqBu9Q-28" value="id" style="ellipse;whiteSpace=wrap;html=1;align=center;fontStyle=4;" vertex="1" parent="1">
          <mxGeometry x="-380" y="331" width="100" height="28" as="geometry" />
        </mxCell>
        <mxCell id="Q3TewVwlvLbOsvYqBu9Q-42" style="edgeStyle=none;curved=1;rounded=0;orthogonalLoop=1;jettySize=auto;html=1;entryX=1;entryY=0.75;entryDx=0;entryDy=0;fontSize=12;startSize=8;endSize=8;" edge="1" parent="1" source="Q3TewVwlvLbOsvYqBu9Q-30" target="Q3TewVwlvLbOsvYqBu9Q-4">
          <mxGeometry relative="1" as="geometry" />
        </mxCell>
        <mxCell id="Q3TewVwlvLbOsvYqBu9Q-30" value="id" style="ellipse;whiteSpace=wrap;html=1;align=center;fontStyle=4;" vertex="1" parent="1">
          <mxGeometry x="1120" y="164" width="102" height="28" as="geometry" />
        </mxCell>
        <mxCell id="Q3TewVwlvLbOsvYqBu9Q-35" value="description" style="ellipse;whiteSpace=wrap;html=1;align=center;" vertex="1" parent="1">
          <mxGeometry x="1052" y="79" width="100" height="40" as="geometry" />
        </mxCell>
        <mxCell id="Q3TewVwlvLbOsvYqBu9Q-38" style="edgeStyle=none;curved=1;rounded=0;orthogonalLoop=1;jettySize=auto;html=1;entryX=0.34;entryY=-0.075;entryDx=0;entryDy=0;fontSize=12;startSize=8;endSize=8;entryPerimeter=0;" edge="1" parent="1" source="Q3TewVwlvLbOsvYqBu9Q-36" target="Q3TewVwlvLbOsvYqBu9Q-4">
          <mxGeometry relative="1" as="geometry" />
        </mxCell>
        <mxCell id="Q3TewVwlvLbOsvYqBu9Q-36" value="imageUrl" style="ellipse;whiteSpace=wrap;html=1;align=center;" vertex="1" parent="1">
          <mxGeometry x="990" y="14" width="95" height="41" as="geometry" />
        </mxCell>
        <mxCell id="Q3TewVwlvLbOsvYqBu9Q-43" style="edgeStyle=none;curved=1;rounded=0;orthogonalLoop=1;jettySize=auto;html=1;exitX=0.5;exitY=1;exitDx=0;exitDy=0;entryX=0.57;entryY=0.075;entryDx=0;entryDy=0;entryPerimeter=0;fontSize=12;startSize=8;endSize=8;" edge="1" parent="1" source="Q3TewVwlvLbOsvYqBu9Q-35" target="Q3TewVwlvLbOsvYqBu9Q-4">
          <mxGeometry relative="1" as="geometry" />
        </mxCell>
        <mxCell id="Q3TewVwlvLbOsvYqBu9Q-44" value="Replies" style="shape=rhombus;perimeter=rhombusPerimeter;whiteSpace=wrap;html=1;align=center;" vertex="1" parent="1">
          <mxGeometry x="389" y="-147" width="120" height="60" as="geometry" />
        </mxCell>
        <mxCell id="Q3TewVwlvLbOsvYqBu9Q-45" value="Relationship" style="shape=rhombus;perimeter=rhombusPerimeter;whiteSpace=wrap;html=1;align=center;" vertex="1" parent="1">
          <mxGeometry x="-564" y="181" width="120" height="60" as="geometry" />
        </mxCell>
        <mxCell id="Q3TewVwlvLbOsvYqBu9Q-59" value="contains" style="shape=rhombus;perimeter=rhombusPerimeter;whiteSpace=wrap;html=1;align=center;" vertex="1" parent="1">
          <mxGeometry x="734" y="-142" width="120" height="60" as="geometry" />
        </mxCell>
        <mxCell id="Q3TewVwlvLbOsvYqBu9Q-65" value="followedBy" style="shape=rhombus;perimeter=rhombusPerimeter;whiteSpace=wrap;html=1;align=center;rotation=55;" vertex="1" parent="1">
          <mxGeometry x="-159" y="203" width="124" height="66" as="geometry" />
        </mxCell>
        <mxCell id="Q3TewVwlvLbOsvYqBu9Q-66" value="Creates" style="shape=rhombus;perimeter=rhombusPerimeter;whiteSpace=wrap;html=1;align=center;rotation=25;" vertex="1" parent="1">
          <mxGeometry x="-110" y="348" width="120" height="60" as="geometry" />
        </mxCell>
        <mxCell id="Q3TewVwlvLbOsvYqBu9Q-67" value="Sends" style="shape=rhombus;perimeter=rhombusPerimeter;whiteSpace=wrap;html=1;align=center;" vertex="1" parent="1">
          <mxGeometry x="-165" y="-52" width="120" height="60" as="geometry" />
        </mxCell>
        <mxCell id="Q3TewVwlvLbOsvYqBu9Q-70" value="" style="endArrow=none;html=1;rounded=0;fontSize=12;startSize=8;endSize=8;curved=1;exitX=0.5;exitY=1;exitDx=0;exitDy=0;entryX=0;entryY=0.5;entryDx=0;entryDy=0;" edge="1" parent="1" source="Q3TewVwlvLbOsvYqBu9Q-45" target="Q3TewVwlvLbOsvYqBu9Q-2">
          <mxGeometry relative="1" as="geometry">
            <mxPoint x="-543" y="310" as="sourcePoint" />
            <mxPoint x="-286" y="361" as="targetPoint" />
          </mxGeometry>
        </mxCell>
        <mxCell id="Q3TewVwlvLbOsvYqBu9Q-71" value="1" style="resizable=0;html=1;whiteSpace=wrap;align=right;verticalAlign=bottom;" connectable="0" vertex="1" parent="Q3TewVwlvLbOsvYqBu9Q-70">
          <mxGeometry x="1" relative="1" as="geometry" />
        </mxCell>
        <mxCell id="Q3TewVwlvLbOsvYqBu9Q-72" value="" style="shape=link;html=1;rounded=0;fontSize=12;startSize=8;endSize=8;curved=1;exitX=1;exitY=0.5;exitDx=0;exitDy=0;entryX=0;entryY=0.5;entryDx=0;entryDy=0;" edge="1" parent="1" source="Q3TewVwlvLbOsvYqBu9Q-3" target="Q3TewVwlvLbOsvYqBu9Q-67">
          <mxGeometry relative="1" as="geometry">
            <mxPoint x="-227" y="-65" as="sourcePoint" />
            <mxPoint x="-67" y="-65" as="targetPoint" />
          </mxGeometry>
        </mxCell>
        <mxCell id="Q3TewVwlvLbOsvYqBu9Q-73" value="N" style="resizable=0;html=1;whiteSpace=wrap;align=right;verticalAlign=bottom;" connectable="0" vertex="1" parent="Q3TewVwlvLbOsvYqBu9Q-72">
          <mxGeometry x="1" relative="1" as="geometry" />
        </mxCell>
        <mxCell id="Q3TewVwlvLbOsvYqBu9Q-74" value="" style="shape=link;html=1;rounded=0;fontSize=12;startSize=8;endSize=8;curved=1;entryX=0.12;entryY=1.05;entryDx=0;entryDy=0;entryPerimeter=0;exitX=0.425;exitY=0.05;exitDx=0;exitDy=0;exitPerimeter=0;" edge="1" parent="1" source="Q3TewVwlvLbOsvYqBu9Q-45" target="Q3TewVwlvLbOsvYqBu9Q-3">
          <mxGeometry relative="1" as="geometry">
            <mxPoint x="-542" y="60" as="sourcePoint" />
            <mxPoint x="-382" y="60" as="targetPoint" />
          </mxGeometry>
        </mxCell>
        <mxCell id="Q3TewVwlvLbOsvYqBu9Q-75" value="N" style="resizable=0;html=1;whiteSpace=wrap;align=right;verticalAlign=bottom;" connectable="0" vertex="1" parent="Q3TewVwlvLbOsvYqBu9Q-74">
          <mxGeometry x="1" relative="1" as="geometry" />
        </mxCell>
        <mxCell id="Q3TewVwlvLbOsvYqBu9Q-76" value="" style="endArrow=none;html=1;rounded=0;fontSize=12;startSize=8;endSize=8;curved=1;exitX=1;exitY=0.5;exitDx=0;exitDy=0;" edge="1" parent="1" source="Q3TewVwlvLbOsvYqBu9Q-67" target="Q3TewVwlvLbOsvYqBu9Q-1">
          <mxGeometry relative="1" as="geometry">
            <mxPoint x="-56" y="13" as="sourcePoint" />
            <mxPoint x="95" y="194" as="targetPoint" />
          </mxGeometry>
        </mxCell>
        <mxCell id="Q3TewVwlvLbOsvYqBu9Q-77" value="1" style="resizable=0;html=1;whiteSpace=wrap;align=right;verticalAlign=bottom;" connectable="0" vertex="1" parent="Q3TewVwlvLbOsvYqBu9Q-76">
          <mxGeometry x="1" relative="1" as="geometry" />
        </mxCell>
        <mxCell id="Q3TewVwlvLbOsvYqBu9Q-79" value="" style="shape=link;html=1;rounded=0;fontSize=12;startSize=8;endSize=8;curved=1;entryX=1;entryY=0;entryDx=0;entryDy=0;exitX=0.5;exitY=1;exitDx=0;exitDy=0;" edge="1" parent="1" source="Q3TewVwlvLbOsvYqBu9Q-66" target="Q3TewVwlvLbOsvYqBu9Q-2">
          <mxGeometry relative="1" as="geometry">
            <mxPoint x="-70" y="361.5" as="sourcePoint" />
            <mxPoint x="-27" y="242.5" as="targetPoint" />
          </mxGeometry>
        </mxCell>
        <mxCell id="Q3TewVwlvLbOsvYqBu9Q-80" value="N" style="resizable=0;html=1;whiteSpace=wrap;align=right;verticalAlign=bottom;" connectable="0" vertex="1" parent="Q3TewVwlvLbOsvYqBu9Q-79">
          <mxGeometry x="1" relative="1" as="geometry" />
        </mxCell>
        <mxCell id="Q3TewVwlvLbOsvYqBu9Q-81" value="" style="endArrow=none;html=1;rounded=0;fontSize=12;startSize=8;endSize=8;curved=1;exitX=0.5;exitY=0;exitDx=0;exitDy=0;entryX=0;entryY=1;entryDx=0;entryDy=0;" edge="1" parent="1" source="Q3TewVwlvLbOsvYqBu9Q-66" target="Q3TewVwlvLbOsvYqBu9Q-1">
          <mxGeometry relative="1" as="geometry">
            <mxPoint x="71" y="165" as="sourcePoint" />
            <mxPoint x="132" y="111" as="targetPoint" />
          </mxGeometry>
        </mxCell>
        <mxCell id="Q3TewVwlvLbOsvYqBu9Q-82" value="M" style="resizable=0;html=1;whiteSpace=wrap;align=right;verticalAlign=bottom;" connectable="0" vertex="1" parent="Q3TewVwlvLbOsvYqBu9Q-81">
          <mxGeometry x="1" relative="1" as="geometry" />
        </mxCell>
        <mxCell id="Q3TewVwlvLbOsvYqBu9Q-84" value="Followings" style="shape=rhombus;perimeter=rhombusPerimeter;whiteSpace=wrap;html=1;align=center;rotation=90;" vertex="1" parent="1">
          <mxGeometry x="-205" y="63" width="124" height="66" as="geometry" />
        </mxCell>
        <mxCell id="Q3TewVwlvLbOsvYqBu9Q-85" value="" style="endArrow=none;html=1;rounded=0;fontSize=12;startSize=8;endSize=8;curved=1;entryX=0.955;entryY=0.508;entryDx=0;entryDy=0;entryPerimeter=0;" edge="1" parent="1" target="Q3TewVwlvLbOsvYqBu9Q-84">
          <mxGeometry relative="1" as="geometry">
            <mxPoint x="166" y="40" as="sourcePoint" />
            <mxPoint x="-207" y="43" as="targetPoint" />
            <Array as="points">
              <mxPoint x="16" y="96" />
            </Array>
          </mxGeometry>
        </mxCell>
        <mxCell id="Q3TewVwlvLbOsvYqBu9Q-86" value="N" style="resizable=0;html=1;whiteSpace=wrap;align=right;verticalAlign=bottom;" connectable="0" vertex="1" parent="Q3TewVwlvLbOsvYqBu9Q-85">
          <mxGeometry x="1" relative="1" as="geometry" />
        </mxCell>
        <mxCell id="Q3TewVwlvLbOsvYqBu9Q-89" value="" style="endArrow=none;html=1;rounded=0;fontSize=12;startSize=8;endSize=8;curved=1;entryX=0.051;entryY=0.4;entryDx=0;entryDy=0;entryPerimeter=0;exitX=0;exitY=0.5;exitDx=0;exitDy=0;" edge="1" parent="1" source="Q3TewVwlvLbOsvYqBu9Q-1" target="Q3TewVwlvLbOsvYqBu9Q-65">
          <mxGeometry relative="1" as="geometry">
            <mxPoint x="162" y="40" as="sourcePoint" />
            <mxPoint x="-14" y="169" as="targetPoint" />
          </mxGeometry>
        </mxCell>
        <mxCell id="Q3TewVwlvLbOsvYqBu9Q-90" value="M" style="resizable=0;html=1;whiteSpace=wrap;align=right;verticalAlign=bottom;" connectable="0" vertex="1" parent="Q3TewVwlvLbOsvYqBu9Q-89">
          <mxGeometry x="1" relative="1" as="geometry" />
        </mxCell>
        <mxCell id="Q3TewVwlvLbOsvYqBu9Q-91" value="" style="endArrow=none;html=1;rounded=0;fontSize=12;startSize=8;endSize=8;curved=1;entryX=1;entryY=0.5;entryDx=0;entryDy=0;" edge="1" parent="1" target="Q3TewVwlvLbOsvYqBu9Q-65">
          <mxGeometry relative="1" as="geometry">
            <mxPoint x="172" y="53" as="sourcePoint" />
            <mxPoint x="-115" y="316" as="targetPoint" />
          </mxGeometry>
        </mxCell>
        <mxCell id="Q3TewVwlvLbOsvYqBu9Q-92" value="N" style="resizable=0;html=1;whiteSpace=wrap;align=right;verticalAlign=bottom;" connectable="0" vertex="1" parent="Q3TewVwlvLbOsvYqBu9Q-91">
          <mxGeometry x="1" relative="1" as="geometry" />
        </mxCell>
        <mxCell id="Q3TewVwlvLbOsvYqBu9Q-93" value="" style="endArrow=none;html=1;rounded=0;fontSize=12;startSize=8;endSize=8;curved=1;exitX=0;exitY=0.25;exitDx=0;exitDy=0;entryX=0;entryY=0.5;entryDx=0;entryDy=0;" edge="1" parent="1" source="Q3TewVwlvLbOsvYqBu9Q-1" target="Q3TewVwlvLbOsvYqBu9Q-84">
          <mxGeometry relative="1" as="geometry">
            <mxPoint x="13" y="401" as="sourcePoint" />
            <mxPoint x="222" y="110" as="targetPoint" />
          </mxGeometry>
        </mxCell>
        <mxCell id="Q3TewVwlvLbOsvYqBu9Q-94" value="M" style="resizable=0;html=1;whiteSpace=wrap;align=right;verticalAlign=bottom;" connectable="0" vertex="1" parent="Q3TewVwlvLbOsvYqBu9Q-93">
          <mxGeometry x="1" relative="1" as="geometry" />
        </mxCell>
        <mxCell id="Q3TewVwlvLbOsvYqBu9Q-99" value="o" style="ellipse;whiteSpace=wrap;html=1;align=center;" vertex="1" parent="1">
          <mxGeometry x="741" y="193" width="42" height="42" as="geometry" />
        </mxCell>
        <mxCell id="Q3TewVwlvLbOsvYqBu9Q-100" value="" style="endArrow=none;html=1;rounded=0;fontSize=12;startSize=8;endSize=8;curved=1;exitX=0.5;exitY=0;exitDx=0;exitDy=0;" edge="1" parent="1" source="Q3TewVwlvLbOsvYqBu9Q-99">
          <mxGeometry relative="1" as="geometry">
            <mxPoint x="397" y="193" as="sourcePoint" />
            <mxPoint x="858" y="192" as="targetPoint" />
          </mxGeometry>
        </mxCell>
        <mxCell id="Q3TewVwlvLbOsvYqBu9Q-101" value="" style="endArrow=none;html=1;rounded=0;fontSize=12;startSize=8;endSize=8;curved=1;entryX=0;entryY=0.5;entryDx=0;entryDy=0;" edge="1" parent="1" source="Q3TewVwlvLbOsvYqBu9Q-111" target="Q3TewVwlvLbOsvYqBu9Q-99">
          <mxGeometry relative="1" as="geometry">
            <mxPoint x="593" y="203" as="sourcePoint" />
            <mxPoint x="738" y="214" as="targetPoint" />
            <Array as="points">
              <mxPoint x="750" y="42" />
            </Array>
          </mxGeometry>
        </mxCell>
        <mxCell id="Q3TewVwlvLbOsvYqBu9Q-102" value="" style="endArrow=none;html=1;rounded=0;fontSize=12;startSize=8;endSize=8;curved=1;" edge="1" parent="1">
          <mxGeometry relative="1" as="geometry">
            <mxPoint x="696" y="31" as="sourcePoint" />
            <mxPoint x="678" y="60" as="targetPoint" />
            <Array as="points">
              <mxPoint x="645" y="15" />
            </Array>
          </mxGeometry>
        </mxCell>
        <mxCell id="Q3TewVwlvLbOsvYqBu9Q-104" value="" style="endArrow=none;html=1;rounded=0;fontSize=12;startSize=8;endSize=8;curved=1;" edge="1" parent="1">
          <mxGeometry relative="1" as="geometry">
            <mxPoint x="716" y="288" as="sourcePoint" />
            <mxPoint x="761" y="322" as="targetPoint" />
            <Array as="points">
              <mxPoint x="687" y="376" />
            </Array>
          </mxGeometry>
        </mxCell>
        <mxCell id="Q3TewVwlvLbOsvYqBu9Q-106" value="" style="endArrow=none;html=1;rounded=0;fontSize=12;startSize=8;endSize=8;curved=1;exitX=0.5;exitY=0;exitDx=0;exitDy=0;" edge="1" parent="1" source="Q3TewVwlvLbOsvYqBu9Q-110">
          <mxGeometry relative="1" as="geometry">
            <mxPoint x="789" y="425" as="sourcePoint" />
            <mxPoint x="736" y="218" as="targetPoint" />
            <Array as="points">
              <mxPoint x="708" y="241" />
            </Array>
          </mxGeometry>
        </mxCell>
        <mxCell id="Q3TewVwlvLbOsvYqBu9Q-107" value="" style="endArrow=none;html=1;rounded=0;fontSize=12;startSize=8;endSize=8;curved=1;exitX=1;exitY=0.5;exitDx=0;exitDy=0;entryX=0.5;entryY=0;entryDx=0;entryDy=0;" edge="1" parent="1" source="Q3TewVwlvLbOsvYqBu9Q-99" target="Q3TewVwlvLbOsvYqBu9Q-109">
          <mxGeometry relative="1" as="geometry">
            <mxPoint x="891" y="476" as="sourcePoint" />
            <mxPoint x="904" y="413" as="targetPoint" />
            <Array as="points">
              <mxPoint x="755" y="399" />
            </Array>
          </mxGeometry>
        </mxCell>
        <mxCell id="Q3TewVwlvLbOsvYqBu9Q-108" value="" style="endArrow=none;html=1;rounded=0;fontSize=12;startSize=8;endSize=8;curved=1;" edge="1" parent="1">
          <mxGeometry relative="1" as="geometry">
            <mxPoint x="674" y="212" as="sourcePoint" />
            <mxPoint x="688" y="245" as="targetPoint" />
            <Array as="points">
              <mxPoint x="647" y="208" />
              <mxPoint x="607" y="240" />
            </Array>
          </mxGeometry>
        </mxCell>
        <mxCell id="Q3TewVwlvLbOsvYqBu9Q-109" value="Repost" style="whiteSpace=wrap;html=1;align=center;" vertex="1" parent="1">
          <mxGeometry x="418" y="387" width="100" height="40" as="geometry" />
        </mxCell>
        <mxCell id="Q3TewVwlvLbOsvYqBu9Q-110" value="Liked" style="whiteSpace=wrap;html=1;align=center;" vertex="1" parent="1">
          <mxGeometry x="496" y="223" width="100" height="40" as="geometry" />
        </mxCell>
        <mxCell id="Q3TewVwlvLbOsvYqBu9Q-111" value="Bookmarked" style="whiteSpace=wrap;html=1;align=center;" vertex="1" parent="1">
          <mxGeometry x="500" y="97" width="100" height="40" as="geometry" />
        </mxCell>
        <mxCell id="Q3TewVwlvLbOsvYqBu9Q-169" value="Reply" style="whiteSpace=wrap;html=1;align=center;" vertex="1" parent="1">
          <mxGeometry x="553" y="-38" width="100" height="40" as="geometry" />
        </mxCell>
        <mxCell id="Q3TewVwlvLbOsvYqBu9Q-170" value="" style="endArrow=none;html=1;rounded=0;fontSize=12;startSize=8;endSize=8;curved=1;entryX=0;entryY=0.5;entryDx=0;entryDy=0;exitX=0.5;exitY=1;exitDx=0;exitDy=0;" edge="1" parent="1" source="Q3TewVwlvLbOsvYqBu9Q-169" target="Q3TewVwlvLbOsvYqBu9Q-99">
          <mxGeometry relative="1" as="geometry">
            <mxPoint x="610" y="108" as="sourcePoint" />
            <mxPoint x="751" y="224" as="targetPoint" />
            <Array as="points">
              <mxPoint x="760" y="52" />
            </Array>
          </mxGeometry>
        </mxCell>
        <mxCell id="Q3TewVwlvLbOsvYqBu9Q-171" value="" style="endArrow=none;html=1;rounded=0;fontSize=12;startSize=8;endSize=8;curved=1;" edge="1" parent="1">
          <mxGeometry relative="1" as="geometry">
            <mxPoint x="658" y="74" as="sourcePoint" />
            <mxPoint x="658" y="107" as="targetPoint" />
            <Array as="points">
              <mxPoint x="584" y="95" />
            </Array>
          </mxGeometry>
        </mxCell>
        <mxCell id="Q3TewVwlvLbOsvYqBu9Q-172" value="" style="shape=link;html=1;rounded=0;fontSize=12;startSize=8;endSize=8;curved=1;entryX=1;entryY=0;entryDx=0;entryDy=0;exitX=0.5;exitY=1;exitDx=0;exitDy=0;" edge="1" parent="1" target="Q3TewVwlvLbOsvYqBu9Q-169">
          <mxGeometry relative="1" as="geometry">
            <mxPoint x="739" y="-112" as="sourcePoint" />
            <mxPoint x="538" y="-86" as="targetPoint" />
          </mxGeometry>
        </mxCell>
        <mxCell id="Q3TewVwlvLbOsvYqBu9Q-173" value="N" style="resizable=0;html=1;whiteSpace=wrap;align=right;verticalAlign=bottom;" connectable="0" vertex="1" parent="Q3TewVwlvLbOsvYqBu9Q-172">
          <mxGeometry x="1" relative="1" as="geometry" />
        </mxCell>
        <mxCell id="Q3TewVwlvLbOsvYqBu9Q-174" value="" style="endArrow=none;html=1;rounded=0;fontSize=12;startSize=8;endSize=8;curved=1;exitX=1;exitY=0.5;exitDx=0;exitDy=0;entryX=0;entryY=0;entryDx=0;entryDy=0;" edge="1" parent="1" source="Q3TewVwlvLbOsvYqBu9Q-59" target="Q3TewVwlvLbOsvYqBu9Q-4">
          <mxGeometry relative="1" as="geometry">
            <mxPoint x="729" y="81" as="sourcePoint" />
            <mxPoint x="889" y="81" as="targetPoint" />
          </mxGeometry>
        </mxCell>
        <mxCell id="Q3TewVwlvLbOsvYqBu9Q-175" value="1" style="resizable=0;html=1;whiteSpace=wrap;align=right;verticalAlign=bottom;" connectable="0" vertex="1" parent="Q3TewVwlvLbOsvYqBu9Q-174">
          <mxGeometry x="1" relative="1" as="geometry" />
        </mxCell>
        <mxCell id="Q3TewVwlvLbOsvYqBu9Q-178" value="Bookmarks" style="shape=rhombus;perimeter=rhombusPerimeter;whiteSpace=wrap;html=1;align=center;" vertex="1" parent="1">
          <mxGeometry x="285" y="107" width="120" height="60" as="geometry" />
        </mxCell>
        <mxCell id="Q3TewVwlvLbOsvYqBu9Q-179" value="reposts" style="shape=rhombus;perimeter=rhombusPerimeter;whiteSpace=wrap;html=1;align=center;" vertex="1" parent="1">
          <mxGeometry x="207" y="380" width="120" height="60" as="geometry" />
        </mxCell>
        <mxCell id="Q3TewVwlvLbOsvYqBu9Q-180" value="Likes" style="shape=rhombus;perimeter=rhombusPerimeter;whiteSpace=wrap;html=1;align=center;" vertex="1" parent="1">
          <mxGeometry x="235" y="235" width="120" height="60" as="geometry" />
        </mxCell>
        <mxCell id="Q3TewVwlvLbOsvYqBu9Q-181" value="" style="shape=link;html=1;rounded=0;fontSize=12;startSize=8;endSize=8;curved=1;entryX=0;entryY=0.5;entryDx=0;entryDy=0;exitX=1;exitY=0.5;exitDx=0;exitDy=0;" edge="1" parent="1" source="Q3TewVwlvLbOsvYqBu9Q-178" target="Q3TewVwlvLbOsvYqBu9Q-111">
          <mxGeometry relative="1" as="geometry">
            <mxPoint x="494" y="38" as="sourcePoint" />
            <mxPoint x="408" y="112" as="targetPoint" />
          </mxGeometry>
        </mxCell>
        <mxCell id="Q3TewVwlvLbOsvYqBu9Q-182" value="N" style="resizable=0;html=1;whiteSpace=wrap;align=right;verticalAlign=bottom;" connectable="0" vertex="1" parent="Q3TewVwlvLbOsvYqBu9Q-181">
          <mxGeometry x="1" relative="1" as="geometry" />
        </mxCell>
        <mxCell id="Q3TewVwlvLbOsvYqBu9Q-188" value="" style="shape=link;html=1;rounded=0;fontSize=12;startSize=8;endSize=8;curved=1;entryX=0;entryY=0.5;entryDx=0;entryDy=0;exitX=1;exitY=0.5;exitDx=0;exitDy=0;" edge="1" parent="1" source="Q3TewVwlvLbOsvYqBu9Q-180" target="Q3TewVwlvLbOsvYqBu9Q-110">
          <mxGeometry relative="1" as="geometry">
            <mxPoint x="399" y="263" as="sourcePoint" />
            <mxPoint x="494" y="243" as="targetPoint" />
          </mxGeometry>
        </mxCell>
        <mxCell id="Q3TewVwlvLbOsvYqBu9Q-189" value="N" style="resizable=0;html=1;whiteSpace=wrap;align=right;verticalAlign=bottom;" connectable="0" vertex="1" parent="Q3TewVwlvLbOsvYqBu9Q-188">
          <mxGeometry x="1" relative="1" as="geometry" />
        </mxCell>
        <mxCell id="Q3TewVwlvLbOsvYqBu9Q-190" value="" style="shape=link;html=1;rounded=0;fontSize=12;startSize=8;endSize=8;curved=1;exitX=1;exitY=0.5;exitDx=0;exitDy=0;entryX=0;entryY=0.5;entryDx=0;entryDy=0;" edge="1" parent="1" source="Q3TewVwlvLbOsvYqBu9Q-179" target="Q3TewVwlvLbOsvYqBu9Q-109">
          <mxGeometry relative="1" as="geometry">
            <mxPoint x="312" y="424" as="sourcePoint" />
            <mxPoint x="415" y="409" as="targetPoint" />
          </mxGeometry>
        </mxCell>
        <mxCell id="Q3TewVwlvLbOsvYqBu9Q-191" value="N" style="resizable=0;html=1;whiteSpace=wrap;align=right;verticalAlign=bottom;" connectable="0" vertex="1" parent="Q3TewVwlvLbOsvYqBu9Q-190">
          <mxGeometry x="1" relative="1" as="geometry" />
        </mxCell>
        <mxCell id="Q3TewVwlvLbOsvYqBu9Q-192" value="" style="endArrow=none;html=1;rounded=0;fontSize=12;startSize=8;endSize=8;curved=1;exitX=0.84;exitY=0.975;exitDx=0;exitDy=0;exitPerimeter=0;entryX=0;entryY=0.5;entryDx=0;entryDy=0;" edge="1" parent="1" source="Q3TewVwlvLbOsvYqBu9Q-1" target="Q3TewVwlvLbOsvYqBu9Q-178">
          <mxGeometry relative="1" as="geometry">
            <mxPoint x="302" y="141" as="sourcePoint" />
            <mxPoint x="278" y="131" as="targetPoint" />
          </mxGeometry>
        </mxCell>
        <mxCell id="Q3TewVwlvLbOsvYqBu9Q-193" value="M" style="resizable=0;html=1;whiteSpace=wrap;align=right;verticalAlign=bottom;" connectable="0" vertex="1" parent="Q3TewVwlvLbOsvYqBu9Q-192">
          <mxGeometry x="1" relative="1" as="geometry" />
        </mxCell>
        <mxCell id="Q3TewVwlvLbOsvYqBu9Q-194" value="" style="endArrow=none;html=1;rounded=0;fontSize=12;startSize=8;endSize=8;curved=1;exitX=0.84;exitY=0.975;exitDx=0;exitDy=0;exitPerimeter=0;entryX=0;entryY=0.5;entryDx=0;entryDy=0;" edge="1" parent="1" target="Q3TewVwlvLbOsvYqBu9Q-180">
          <mxGeometry relative="1" as="geometry">
            <mxPoint x="232.5" y="60" as="sourcePoint" />
            <mxPoint x="261.5" y="138" as="targetPoint" />
          </mxGeometry>
        </mxCell>
        <mxCell id="Q3TewVwlvLbOsvYqBu9Q-195" value="M" style="resizable=0;html=1;whiteSpace=wrap;align=right;verticalAlign=bottom;" connectable="0" vertex="1" parent="Q3TewVwlvLbOsvYqBu9Q-194">
          <mxGeometry x="1" relative="1" as="geometry" />
        </mxCell>
        <mxCell id="Q3TewVwlvLbOsvYqBu9Q-196" value="" style="endArrow=none;html=1;rounded=0;fontSize=12;startSize=8;endSize=8;curved=1;exitX=0.84;exitY=0.975;exitDx=0;exitDy=0;exitPerimeter=0;entryX=0;entryY=0.5;entryDx=0;entryDy=0;" edge="1" parent="1" target="Q3TewVwlvLbOsvYqBu9Q-179">
          <mxGeometry relative="1" as="geometry">
            <mxPoint x="197" y="58" as="sourcePoint" />
            <mxPoint x="199.5" y="263" as="targetPoint" />
          </mxGeometry>
        </mxCell>
        <mxCell id="Q3TewVwlvLbOsvYqBu9Q-197" value="M" style="resizable=0;html=1;whiteSpace=wrap;align=right;verticalAlign=bottom;" connectable="0" vertex="1" parent="Q3TewVwlvLbOsvYqBu9Q-196">
          <mxGeometry x="1" relative="1" as="geometry" />
        </mxCell>
        <mxCell id="Q3TewVwlvLbOsvYqBu9Q-198" value="" style="shape=link;html=1;rounded=0;fontSize=12;startSize=8;endSize=8;curved=1;" edge="1" parent="1" source="Q3TewVwlvLbOsvYqBu9Q-44">
          <mxGeometry relative="1" as="geometry">
            <mxPoint x="462" y="-10" as="sourcePoint" />
            <mxPoint x="551" y="-40" as="targetPoint" />
          </mxGeometry>
        </mxCell>
        <mxCell id="Q3TewVwlvLbOsvYqBu9Q-199" value="N" style="resizable=0;html=1;whiteSpace=wrap;align=right;verticalAlign=bottom;" connectable="0" vertex="1" parent="Q3TewVwlvLbOsvYqBu9Q-198">
          <mxGeometry x="1" relative="1" as="geometry" />
        </mxCell>
        <mxCell id="Q3TewVwlvLbOsvYqBu9Q-200" value="" style="endArrow=none;html=1;rounded=0;fontSize=12;startSize=8;endSize=8;curved=1;exitX=0.75;exitY=0;exitDx=0;exitDy=0;entryX=0;entryY=0.5;entryDx=0;entryDy=0;" edge="1" parent="1" source="Q3TewVwlvLbOsvYqBu9Q-1" target="Q3TewVwlvLbOsvYqBu9Q-44">
          <mxGeometry relative="1" as="geometry">
            <mxPoint x="266" y="69" as="sourcePoint" />
            <mxPoint x="295" y="147" as="targetPoint" />
          </mxGeometry>
        </mxCell>
        <mxCell id="Q3TewVwlvLbOsvYqBu9Q-201" value="M" style="resizable=0;html=1;whiteSpace=wrap;align=right;verticalAlign=bottom;" connectable="0" vertex="1" parent="Q3TewVwlvLbOsvYqBu9Q-200">
          <mxGeometry x="1" relative="1" as="geometry" />
        </mxCell>
        <mxCell id="Q3TewVwlvLbOsvYqBu9Q-202" value="creates" style="shape=rhombus;perimeter=rhombusPerimeter;whiteSpace=wrap;html=1;align=center;" vertex="1" parent="1">
          <mxGeometry x="289" y="507" width="120" height="60" as="geometry" />
        </mxCell>
        <mxCell id="Q3TewVwlvLbOsvYqBu9Q-203" value="" style="shape=link;html=1;rounded=0;fontSize=12;startSize=8;endSize=8;curved=1;entryX=0.32;entryY=1;entryDx=0;entryDy=0;exitX=1;exitY=0.5;exitDx=0;exitDy=0;entryPerimeter=0;" edge="1" parent="1" source="Q3TewVwlvLbOsvYqBu9Q-202" target="Q3TewVwlvLbOsvYqBu9Q-4">
          <mxGeometry relative="1" as="geometry">
            <mxPoint x="797" y="238" as="sourcePoint" />
            <mxPoint x="938" y="216" as="targetPoint" />
            <Array as="points">
              <mxPoint x="807" y="458" />
            </Array>
          </mxGeometry>
        </mxCell>
        <mxCell id="Q3TewVwlvLbOsvYqBu9Q-204" value="N" style="resizable=0;html=1;whiteSpace=wrap;align=right;verticalAlign=bottom;" connectable="0" vertex="1" parent="Q3TewVwlvLbOsvYqBu9Q-203">
          <mxGeometry x="1" relative="1" as="geometry" />
        </mxCell>
        <mxCell id="Q3TewVwlvLbOsvYqBu9Q-205" value="" style="endArrow=none;html=1;rounded=0;fontSize=12;startSize=8;endSize=8;curved=1;entryX=0.14;entryY=1;entryDx=0;entryDy=0;entryPerimeter=0;exitX=0;exitY=0.5;exitDx=0;exitDy=0;" edge="1" parent="1" source="Q3TewVwlvLbOsvYqBu9Q-202" target="Q3TewVwlvLbOsvYqBu9Q-1">
          <mxGeometry relative="1" as="geometry">
            <mxPoint x="118" y="544" as="sourcePoint" />
            <mxPoint x="186" y="82" as="targetPoint" />
            <Array as="points">
              <mxPoint x="-35" y="671" />
            </Array>
          </mxGeometry>
        </mxCell>
        <mxCell id="Q3TewVwlvLbOsvYqBu9Q-206" value="1" style="resizable=0;html=1;whiteSpace=wrap;align=right;verticalAlign=bottom;" connectable="0" vertex="1" parent="Q3TewVwlvLbOsvYqBu9Q-205">
          <mxGeometry x="1" relative="1" as="geometry" />
        </mxCell>
        <mxCell id="Q3TewVwlvLbOsvYqBu9Q-207" value="updatedAt" style="ellipse;whiteSpace=wrap;html=1;align=center;" vertex="1" parent="1">
          <mxGeometry x="-515" y="-167" width="100" height="40" as="geometry" />
        </mxCell>
        <mxCell id="Q3TewVwlvLbOsvYqBu9Q-210" style="edgeStyle=none;curved=1;rounded=0;orthogonalLoop=1;jettySize=auto;html=1;fontSize=12;startSize=8;endSize=8;" edge="1" parent="1" source="Q3TewVwlvLbOsvYqBu9Q-208" target="Q3TewVwlvLbOsvYqBu9Q-3">
          <mxGeometry relative="1" as="geometry" />
        </mxCell>
        <mxCell id="Q3TewVwlvLbOsvYqBu9Q-208" value="createdAt" style="ellipse;whiteSpace=wrap;html=1;align=center;" vertex="1" parent="1">
          <mxGeometry x="-362" y="-198" width="100" height="40" as="geometry" />
        </mxCell>
        <mxCell id="Q3TewVwlvLbOsvYqBu9Q-209" style="edgeStyle=none;curved=1;rounded=0;orthogonalLoop=1;jettySize=auto;html=1;exitX=0.5;exitY=1;exitDx=0;exitDy=0;entryX=0.116;entryY=0.06;entryDx=0;entryDy=0;entryPerimeter=0;fontSize=12;startSize=8;endSize=8;" edge="1" parent="1" source="Q3TewVwlvLbOsvYqBu9Q-207" target="Q3TewVwlvLbOsvYqBu9Q-3">
          <mxGeometry relative="1" as="geometry" />
        </mxCell>
        <mxCell id="Q3TewVwlvLbOsvYqBu9Q-212" style="edgeStyle=none;curved=1;rounded=0;orthogonalLoop=1;jettySize=auto;html=1;exitX=0.5;exitY=1;exitDx=0;exitDy=0;entryX=0.25;entryY=0;entryDx=0;entryDy=0;fontSize=12;startSize=8;endSize=8;" edge="1" parent="1" source="Q3TewVwlvLbOsvYqBu9Q-211" target="Q3TewVwlvLbOsvYqBu9Q-1">
          <mxGeometry relative="1" as="geometry" />
        </mxCell>
        <mxCell id="Q3TewVwlvLbOsvYqBu9Q-211" value="updatedAt" style="ellipse;whiteSpace=wrap;html=1;align=center;" vertex="1" parent="1">
          <mxGeometry x="104" y="-172" width="100" height="40" as="geometry" />
        </mxCell>
        <mxCell id="Q3TewVwlvLbOsvYqBu9Q-214" style="edgeStyle=none;curved=1;rounded=0;orthogonalLoop=1;jettySize=auto;html=1;exitX=0.5;exitY=1;exitDx=0;exitDy=0;entryX=0.75;entryY=0;entryDx=0;entryDy=0;fontSize=12;startSize=8;endSize=8;" edge="1" parent="1" source="Q3TewVwlvLbOsvYqBu9Q-213" target="Q3TewVwlvLbOsvYqBu9Q-1">
          <mxGeometry relative="1" as="geometry" />
        </mxCell>
        <mxCell id="Q3TewVwlvLbOsvYqBu9Q-213" value="createdAt" style="ellipse;whiteSpace=wrap;html=1;align=center;" vertex="1" parent="1">
          <mxGeometry x="252" y="-172" width="100" height="40" as="geometry" />
        </mxCell>
        <mxCell id="Q3TewVwlvLbOsvYqBu9Q-216" style="edgeStyle=none;curved=1;rounded=0;orthogonalLoop=1;jettySize=auto;html=1;exitX=0.5;exitY=1;exitDx=0;exitDy=0;entryX=0.25;entryY=0;entryDx=0;entryDy=0;fontSize=12;startSize=8;endSize=8;" edge="1" parent="1" source="Q3TewVwlvLbOsvYqBu9Q-215" target="Q3TewVwlvLbOsvYqBu9Q-1">
          <mxGeometry relative="1" as="geometry" />
        </mxCell>
        <mxCell id="Q3TewVwlvLbOsvYqBu9Q-215" value="lastLogin" style="ellipse;whiteSpace=wrap;html=1;align=center;" vertex="1" parent="1">
          <mxGeometry x="168" y="-212" width="100" height="40" as="geometry" />
        </mxCell>
        <mxCell id="Q3TewVwlvLbOsvYqBu9Q-220" style="edgeStyle=none;curved=1;rounded=0;orthogonalLoop=1;jettySize=auto;html=1;exitX=0;exitY=0.5;exitDx=0;exitDy=0;entryX=0.75;entryY=1;entryDx=0;entryDy=0;fontSize=12;startSize=8;endSize=8;" edge="1" parent="1" source="Q3TewVwlvLbOsvYqBu9Q-217" target="Q3TewVwlvLbOsvYqBu9Q-4">
          <mxGeometry relative="1" as="geometry" />
        </mxCell>
        <mxCell id="Q3TewVwlvLbOsvYqBu9Q-217" value="updatedAt" style="ellipse;whiteSpace=wrap;html=1;align=center;" vertex="1" parent="1">
          <mxGeometry x="974" y="241" width="100" height="40" as="geometry" />
        </mxCell>
        <mxCell id="Q3TewVwlvLbOsvYqBu9Q-219" style="edgeStyle=none;curved=1;rounded=0;orthogonalLoop=1;jettySize=auto;html=1;exitX=0.5;exitY=1;exitDx=0;exitDy=0;entryX=0.25;entryY=0;entryDx=0;entryDy=0;fontSize=12;startSize=8;endSize=8;" edge="1" parent="1" source="Q3TewVwlvLbOsvYqBu9Q-218" target="Q3TewVwlvLbOsvYqBu9Q-4">
          <mxGeometry relative="1" as="geometry" />
        </mxCell>
        <mxCell id="Q3TewVwlvLbOsvYqBu9Q-218" value="createdAt" style="ellipse;whiteSpace=wrap;html=1;align=center;" vertex="1" parent="1">
          <mxGeometry x="893" y="6" width="100" height="40" as="geometry" />
        </mxCell>
      </root>
    </mxGraphModel>
  </diagram>
</mxfile>
